<mxfile host="app.diagrams.net" modified="2021-08-25T04:43:24.622Z" agent="5.0 (Windows)" etag="m94qei45T1NnKff-Lb8r" version="14.9.9" type="github">
  <diagram id="M4hTDXa1gU_5NmhWSxLH" name="Page-1">
    <mxGraphModel dx="868" dy="423" grid="1" gridSize="10" guides="1" tooltips="1" connect="1" arrows="1" fold="1" page="1" pageScale="1" pageWidth="850" pageHeight="1100" math="0" shadow="0">
      <root>
        <mxCell id="0" />
        <mxCell id="1" parent="0" />
        <mxCell id="3PeoO1X63newxOYWtnke-5" style="edgeStyle=orthogonalEdgeStyle;rounded=0;orthogonalLoop=1;jettySize=auto;html=1;" edge="1" parent="1" source="3PeoO1X63newxOYWtnke-1" target="3PeoO1X63newxOYWtnke-3">
          <mxGeometry relative="1" as="geometry" />
        </mxCell>
        <mxCell id="3PeoO1X63newxOYWtnke-1" value="" style="rounded=1;whiteSpace=wrap;html=1;" vertex="1" parent="1">
          <mxGeometry x="90" y="150" width="120" height="140" as="geometry" />
        </mxCell>
        <mxCell id="3PeoO1X63newxOYWtnke-2" value="1234 -Invoice" style="shape=step;perimeter=stepPerimeter;whiteSpace=wrap;html=1;fixedSize=1;" vertex="1" parent="1">
          <mxGeometry x="90" y="180" width="120" height="50" as="geometry" />
        </mxCell>
        <mxCell id="3PeoO1X63newxOYWtnke-6" style="edgeStyle=orthogonalEdgeStyle;rounded=0;orthogonalLoop=1;jettySize=auto;html=1;" edge="1" parent="1" source="3PeoO1X63newxOYWtnke-3">
          <mxGeometry relative="1" as="geometry">
            <mxPoint x="220" y="270" as="targetPoint" />
            <Array as="points">
              <mxPoint x="550" y="270" />
              <mxPoint x="550" y="270" />
            </Array>
          </mxGeometry>
        </mxCell>
        <mxCell id="3PeoO1X63newxOYWtnke-3" value="" style="rounded=1;whiteSpace=wrap;html=1;" vertex="1" parent="1">
          <mxGeometry x="550" y="135" width="120" height="140" as="geometry" />
        </mxCell>
        <mxCell id="3PeoO1X63newxOYWtnke-7" value="URA_Invoice_ID" style="text;html=1;strokeColor=none;fillColor=none;align=center;verticalAlign=middle;whiteSpace=wrap;rounded=0;" vertex="1" parent="1">
          <mxGeometry x="380" y="250" width="85" height="60" as="geometry" />
        </mxCell>
        <mxCell id="3PeoO1X63newxOYWtnke-9" value="" style="rounded=1;whiteSpace=wrap;html=1;" vertex="1" parent="1">
          <mxGeometry x="80" y="330" width="120" height="140" as="geometry" />
        </mxCell>
        <mxCell id="3PeoO1X63newxOYWtnke-10" value="1234 -DEBIT" style="shape=step;perimeter=stepPerimeter;whiteSpace=wrap;html=1;fixedSize=1;" vertex="1" parent="1">
          <mxGeometry x="80" y="360" width="120" height="50" as="geometry" />
        </mxCell>
      </root>
    </mxGraphModel>
  </diagram>
</mxfile>
